<?xml version="1.0" encoding="UTF-8"?>
<!DOCTYPE svg PUBLIC "-//W3C//DTD SVG 1.1//EN" "http://www.w3.org/Graphics/SVG/1.1/DTD/svg11.dtd">
<!-- Creator: CorelDRAW 2020 (64-Bit) -->
<svg xmlns="http://www.w3.org/2000/svg" xml:space="preserve" width="210mm" height="297mm" version="1.1" style="shape-rendering:geometricPrecision; text-rendering:geometricPrecision; image-rendering:optimizeQuality; fill-rule:evenodd; clip-rule:evenodd"
viewBox="0 0 21000 29700"
 xmlns:xlink="http://www.w3.org/1999/xlink"
 xmlns:xodm="http://www.corel.com/coreldraw/odm/2003">
 <defs>
  <style type="text/css">
   <![CDATA[
    .fil0 {fill:none}
    .fil1 {fill:#342960;fill-rule:nonzero}
   ]]>
  </style>
 </defs>
 <g id="Слой_x0020_1">
  <metadata id="CorelCorpID_0Corel-Layer"/>
  <rect class="fil0" x="11344.69" y="10760.49" width="1000" height="1000"/>
  <path class="fil1" d="M11558.35 11339.95c-2.97,-1.56 -19.05,2.54 -20.75,6.63 1.27,21.87 12.84,88.76 19.05,97.37 14.82,8.6 53.48,20.46 94.12,20.46 94.41,0 146.62,-54.19 146.62,-118.25 0,-46.57 -23.99,-73.81 -64.21,-98.64 -23.98,-14.4 -48.4,-27.24 -74.64,-44.17 -26.53,-17.78 -41.77,-35.56 -41.35,-66.46 0,-31.05 21.87,-59.41 60.54,-59.41 19.89,0 36.4,3.67 50.09,13.55 15.38,9.87 22.02,28.5 26.95,66.88 2.4,1.7 17.78,1.7 19.9,-1.27 2.4,-35.13 6.63,-68.3 10.73,-91.01 -28.93,-2.69 -55.04,-10.16 -101.04,-10.16 -70.98,0 -129.82,39.22 -129.82,110.34 0,61.53 41.62,92.01 97.36,125.03 58.57,34.71 77.19,54.47 77.19,90.03 0,40.92 -29.91,58.98 -60.96,58.98 -21.59,0 -43.88,-4.94 -60.39,-16.93 -22.72,-16.09 -36.69,-41.2 -49.39,-82.97zm285.05 -256.54c13.68,1.97 23.99,3.24 33.16,5.78 13.97,4.52 16.93,9.46 18.48,29.78 1.27,17.35 0.85,69.85 0.85,122.9 0,73.24 0.42,130.81 -0.85,154.1 -0.7,21.02 -6.49,28.93 -19.75,32.31 -10.3,2.82 -26.95,4.94 -47.98,7.34 -1.69,2.4 -1.27,16.09 0,19.76 31.04,0 69,-2.12 107.81,-2.12 66.75,0 119.38,2.54 172.86,2.54 29.35,0 32.74,-3.67 35.56,-10.3 10.3,-19.9 24.84,-71.97 28.08,-89.89 -2.4,-3.25 -16.93,-8.18 -20.6,-7.76 -8.75,21.02 -21.87,44.17 -32.46,57.85 -12.55,15.39 -20.46,19.05 -48.68,19.9 -31.61,0 -74.65,-1.27 -87.49,-4.51 -7.48,-2.12 -13.69,-10.87 -13.69,-22.44 -0.84,-31.05 -1.27,-87.21 -0.84,-119.95 0,-1.27 1.97,-5.78 3.67,-5.78 22.01,0 72.25,0 87.91,1.27 13.69,2.11 18.77,9.45 22.01,18.62 1.7,7.91 1.7,9.46 5.36,26.11 3.39,2.4 19.9,1.55 23.15,-0.85 -0.71,-16.65 -1.13,-40.21 -1.13,-60.53 0,-21.45 2.4,-46.71 3.67,-60.68 -2.54,-2.96 -19.48,-3.39 -23.15,-1.27 -1.69,8.61 -3.81,17.78 -5.36,23.99 -4.23,13.12 -9.17,19.75 -23.28,20.18 -21.17,2.11 -68.02,2.11 -89.18,1.27 -1.7,0 -3.67,-2.54 -3.67,-4.94 -0.43,-35.14 -0.43,-91.02 0,-128.98 0,-2.82 3.24,-10.72 7.76,-11.99 7.9,-0.85 78.46,-0.85 92.99,0.42 15.38,1.27 23.28,6.21 28.65,20.6 4.51,10.02 7.05,21.59 9.45,42.62 2.54,1.69 18.77,1.27 22.01,-1.27 1.13,-31.05 4.94,-71.97 9.88,-91.02 0,-1.27 -1.27,-3.38 -2.54,-3.38 -17.5,2.68 -50.8,3.52 -75.77,3.52l-126.3 0c-33.58,0 -69.43,-2.54 -89.75,-2.54 -2.82,2.4 -4.09,16.37 -0.84,19.34z"/>
  <path class="fil1" d="M12300 11277.93c2.14,-1.73 3.54,-9.63 2.88,-12.27 -52.11,-6.25 -47.33,-32.1 -43.96,-71.86 2.23,-19.51 2.97,-28.4 2.97,-37.37 0,-41.4 -39.84,-58.53 -77.46,-57.37 -1.24,1.23 -3.62,10.12 -2.64,12.34 24.37,2.89 51.12,11.78 51.12,46.27 0,17.61 -4.36,41.98 -4.36,64.37 -0.16,17.12 3.46,43.62 43.13,47.66 0.5,0.49 0.5,2.22 0,2.22 -36.13,10.12 -40.74,33.99 -40.74,49.88 0,19.02 5.35,40.99 5.35,58.28 0.08,29.22 -12.19,44.37 -51.04,51.86 -1.48,1.48 0,10.37 1.4,11.36 48.48,-3.62 78.2,-26.1 78.2,-76.88 0,-4.86 -1.89,-24.86 -2.63,-31.61 -4.2,-33.26 -3.3,-55.65 37.78,-56.88z"/>
  <path class="fil1" d="M11391.34 11265.03c-2.22,0.74 -3.62,10.38 -2.88,12.35 52.93,7 46.18,29.88 43.05,69.64 -2.05,19.51 -2.79,28.4 -2.79,37.12 0,41.9 39.34,59.02 77.21,57.87 1.73,-0.99 3.62,-10.86 2.38,-12.35 -24.36,-2.88 -50.62,-11.52 -50.62,-46.26 0,-17.61 4.36,-39.84 4.36,-62.23 0.09,-16.79 -3.04,-44.78 -43.62,-48.65 -0.42,-0.49 -0.42,-1.15 0,-1.89 37.45,-8.72 41.32,-33.25 41.32,-49.22 0,-18.77 -5.35,-42.64 -5.35,-60.01 -0.17,-28.4 11.69,-45.03 50.95,-51.78 0.74,-1.73 -0.25,-11.11 -1.4,-11.85 -48.24,3.62 -78.2,27 -78.2,76.72 0,4.77 1.65,27.41 2.64,33.91 3.95,33.26 3.95,55.73 -37.05,56.63z"/>
 </g>
</svg>
