<?xml version="1.0" encoding="UTF-8"?>
<!DOCTYPE svg PUBLIC "-//W3C//DTD SVG 1.1//EN" "http://www.w3.org/Graphics/SVG/1.1/DTD/svg11.dtd">
<svg xmlns="http://www.w3.org/2000/svg" version="1.1" width="119px" height="119px" style="shape-rendering:geometricPrecision; text-rendering:geometricPrecision; image-rendering:optimizeQuality; fill-rule:evenodd; clip-rule:evenodd" xmlns:xlink="http://www.w3.org/1999/xlink">
<g><path style="opacity:0.991" fill="#352a60" d="M -0.5,-0.5 C 39.1667,-0.5 78.8333,-0.5 118.5,-0.5C 118.5,39.1667 118.5,78.8333 118.5,118.5C 78.8333,118.5 39.1667,118.5 -0.5,118.5C -0.5,78.8333 -0.5,39.1667 -0.5,-0.5 Z"/></g>
<g><path style="opacity:1" fill="#f4f3f6" d="M 33.5,34.5 C 39.5451,34.3032 45.5451,34.6365 51.5,35.5C 51.0578,39.1545 50.7244,42.8212 50.5,46.5C 49.5,46.5 48.5,46.5 47.5,46.5C 47.0598,38.9141 43.0598,36.0808 35.5,38C 32.6061,40.9087 31.7728,44.4087 33,48.5C 37.9072,52.3712 43.0739,55.8712 48.5,59C 56.2658,68.6099 54.5991,76.2766 43.5,82C 38.1667,82.6667 32.8333,82.6667 27.5,82C 26.0692,81.5348 24.9025,80.7014 24,79.5C 23.2811,75.8546 22.7811,72.1879 22.5,68.5C 23.675,68.281 24.675,68.6143 25.5,69.5C 29.0059,79.348 35.1726,81.6814 44,76.5C 44.7901,73.366 44.4568,70.366 43,67.5C 38.9199,64.543 34.7533,61.7097 30.5,59C 24.888,54.8244 23.0547,49.3244 25,42.5C 27.1565,39.0241 29.9898,36.3575 33.5,34.5 Z"/></g>
<g><path style="opacity:1" fill="#f5f5f7" d="M 58.5,35.5 C 70.1667,35.5 81.8333,35.5 93.5,35.5C 93.5,39.1667 93.5,42.8333 93.5,46.5C 92.1667,46.5 90.8333,46.5 89.5,46.5C 89.8957,43.9556 89.229,41.7889 87.5,40C 83.1667,39.3333 78.8333,39.3333 74.5,40C 73.5268,45.4066 73.1934,50.9066 73.5,56.5C 77.5138,56.6655 81.5138,56.4988 85.5,56C 86.747,54.0535 88.0803,52.2202 89.5,50.5C 90.4941,55.456 90.8275,60.456 90.5,65.5C 89.5,65.5 88.5,65.5 87.5,65.5C 87.7035,63.6096 87.0368,62.1096 85.5,61C 81.5138,60.5012 77.5138,60.3345 73.5,60.5C 73.1934,66.0934 73.5268,71.5934 74.5,77C 79.5,77.6667 84.5,77.6667 89.5,77C 91.7098,75.2854 93.3764,73.1188 94.5,70.5C 95.325,69.6143 96.325,69.281 97.5,69.5C 96.9702,73.2849 95.9702,76.9515 94.5,80.5C 82.1667,81.8333 69.8333,81.8333 57.5,80.5C 60.1784,79.4452 62.6784,78.1118 65,76.5C 65.6667,64.5 65.6667,52.5 65,40.5C 63.2111,38.771 61.0444,38.1043 58.5,38.5C 58.5,37.5 58.5,36.5 58.5,35.5 Z"/></g>
<g><path style="opacity:1" fill="#c8c8ce" d="M 13.5,39.5 C 15.1992,39.3398 16.8659,39.5065 18.5,40C 16.1523,40.3459 14.3189,41.5125 13,43.5C 12.6667,47.8333 12.3333,52.1667 12,56.5C 9.02163,58.6629 9.35496,60.6629 13,62.5C 12.9068,66.8261 12.9068,71.1595 13,75.5C 14.5998,76.8659 16.4332,77.8659 18.5,78.5C 14.7589,80.1815 11.9256,79.1815 10,75.5C 10.0932,71.1739 10.0932,66.8405 10,62.5C 8.21975,61.4063 6.38642,60.4063 4.5,59.5C 6.19322,58.7717 7.69322,57.7717 9,56.5C 9.33333,52.1667 9.66667,47.8333 10,43.5C 11.3756,42.2949 12.5423,40.9616 13.5,39.5 Z"/></g>
<g><path style="opacity:1" fill="#b5b4bb" d="M 99.5,39.5 C 103.025,39.3459 105.859,40.6792 108,43.5C 107.907,47.8261 107.907,52.1595 108,56.5C 109.171,57.8932 110.671,58.7265 112.5,59C 111.109,60.02 109.609,60.8534 108,61.5C 108.363,65.8006 108.363,70.134 108,74.5C 105.915,77.8985 103.082,79.2318 99.5,78.5C 101.193,77.7717 102.693,76.7717 104,75.5C 104.333,70.8333 104.667,66.1667 105,61.5C 108.124,60.0132 108.124,58.3466 105,56.5C 104.667,52.1667 104.333,47.8333 104,43.5C 102.141,42.4209 100.641,41.0876 99.5,39.5 Z"/></g>
</svg>
