<?xml version="1.0" encoding="UTF-8"?>
<!DOCTYPE svg PUBLIC "-//W3C//DTD SVG 1.1//EN" "http://www.w3.org/Graphics/SVG/1.1/DTD/svg11.dtd">
<svg xmlns="http://www.w3.org/2000/svg" version="1.1" width="119px" height="120px" style="shape-rendering:geometricPrecision; text-rendering:geometricPrecision; image-rendering:optimizeQuality; fill-rule:evenodd; clip-rule:evenodd" xmlns:xlink="http://www.w3.org/1999/xlink">
<g><path style="opacity:0.931" fill="#33285f" d="M 40.5,34.5 C 44.0814,35.2599 47.7481,35.7599 51.5,36C 52.3081,36.3076 52.9747,36.8076 53.5,37.5C 52.7565,40.443 52.2565,43.443 52,46.5C 51.2904,47.9733 50.1238,48.6399 48.5,48.5C 48.111,39.6387 43.7776,36.8053 35.5,40C 32.2147,45.2779 33.2147,49.6112 38.5,53C 44.1293,55.3982 48.9626,58.8982 53,63.5C 56.1649,76.4717 50.9983,83.4717 37.5,84.5C 33.1351,84.1949 28.9684,83.1949 25,81.5C 24.1638,77.6266 23.3305,73.7933 22.5,70C 23.1079,69.1301 23.9412,68.6301 25,68.5C 26.8843,70.4502 28.2176,72.7835 29,75.5C 32.3281,79.4175 36.4948,80.9175 41.5,80C 45.6285,77.3689 46.4619,73.8689 44,69.5C 38.6667,65.5 33.3333,61.5 28,57.5C 22.1689,44.4989 26.3356,36.8322 40.5,34.5 Z"/></g>
<g><path style="opacity:0.928" fill="#33285f" d="M 93.5,35.5 C 94.6946,35.8656 95.3613,36.699 95.5,38C 94.7963,41.1275 94.2963,44.2942 94,47.5C 92.9887,48.3366 91.8221,48.67 90.5,48.5C 90.747,45.495 89.747,42.995 87.5,41C 83.5138,40.5012 79.5138,40.3345 75.5,40.5C 75.1718,45.8746 75.5052,51.2079 76.5,56.5C 80.1677,57.219 83.8343,56.8857 87.5,55.5C 88.2458,54.2638 88.5792,52.9305 88.5,51.5C 89.8333,51.5 91.1667,51.5 92.5,51.5C 91.7255,56.7968 91.3921,62.1301 91.5,67.5C 90.325,67.719 89.325,67.3857 88.5,66.5C 88.0995,64.5658 87.0995,63.0658 85.5,62C 82.1832,61.5017 78.8499,61.335 75.5,61.5C 75.1934,67.0934 75.5268,72.5934 76.5,78C 81.1667,78.6667 85.8333,78.6667 90.5,78C 92.7971,75.2256 94.9637,72.3923 97,69.5C 98.2798,69.6135 99.1131,70.2801 99.5,71.5C 98.699,75.7453 97.0323,79.5786 94.5,83C 82.1712,83.4999 69.8378,83.6665 57.5,83.5C 57.5,82.1667 57.5,80.8333 57.5,79.5C 59.9201,79.7076 62.2534,79.3742 64.5,78.5C 65.8333,65.8333 65.8333,53.1667 64.5,40.5C 62.9291,39.6906 61.2624,39.3573 59.5,39.5C 59.5,38.5 59.5,37.5 59.5,36.5C 71.0123,36.8281 82.3456,36.4948 93.5,35.5 Z"/></g>
<g><path style="opacity:0.841" fill="#33285e" d="M 16.5,39.5 C 17.675,39.281 18.675,39.6143 19.5,40.5C 17.5721,42.0499 15.7387,43.7166 14,45.5C 13.6667,49.8333 13.3333,54.1667 13,58.5C 11.3657,59.9904 11.699,61.3237 14,62.5C 14.4339,66.5478 14.4339,70.5478 14,74.5C 15.0404,77.0405 16.8737,78.7071 19.5,79.5C 14.0874,81.1229 10.7541,79.1229 9.5,73.5C 10.4959,70.2025 10.6626,66.8692 10,63.5C 8.21975,62.4063 6.38642,61.4063 4.5,60.5C 8.26922,59.4808 10.2692,56.9808 10.5,53C 8.8487,46.8072 10.8487,42.3072 16.5,39.5 Z"/></g>
<g><path style="opacity:0.849" fill="#33285e" d="M 98.5,40.5 C 102.192,39.9712 105.358,40.9712 108,43.5C 108.245,47.8532 108.245,52.1866 108,56.5C 109.456,57.9196 110.956,59.253 112.5,60.5C 111.372,61.2621 110.205,61.9288 109,62.5C 108.891,67.6141 108.224,72.6141 107,77.5C 104.683,80.0965 101.85,80.9299 98.5,80C 100.249,78.7085 102.082,77.5418 104,76.5C 103.907,72.1739 103.907,67.8405 104,63.5C 106.562,62.1015 106.895,60.4348 105,58.5C 104.667,53.8333 104.333,49.1667 104,44.5C 101.689,43.6032 99.8559,42.2699 98.5,40.5 Z"/></g>
</svg>
