<?xml version="1.0" encoding="UTF-8"?>
<!DOCTYPE svg PUBLIC "-//W3C//DTD SVG 1.1//EN" "http://www.w3.org/Graphics/SVG/1.1/DTD/svg11.dtd">
<svg xmlns="http://www.w3.org/2000/svg" version="1.1" width="174px" height="177px" style="shape-rendering:geometricPrecision; text-rendering:geometricPrecision; image-rendering:optimizeQuality; fill-rule:evenodd; clip-rule:evenodd" xmlns:xlink="http://www.w3.org/1999/xlink">
<g><path style="opacity:0.004" fill="#fefffe" d="M -0.5,-0.5 C -0.166667,-0.5 0.166667,-0.5 0.5,-0.5C 0.31468,0.170143 -0.0186536,0.170143 -0.5,-0.5 Z"/></g>
<g><path style="opacity:0.362" fill="#f2f2f2" d="M 91.5,3.5 C 83.7921,3.35831 76.1254,3.85831 68.5,5C 60.9971,7.23876 53.6637,9.73876 46.5,12.5C 49.2211,9.39808 48.8877,6.56475 45.5,4C 47.5787,3.19234 49.5787,3.35901 51.5,4.5C 54.1667,8.5 56.8333,8.5 59.5,4.5C 63.1739,3.76746 66.8406,3.1008 70.5,2.5C 71.2935,2.9312 72.1268,3.26454 73,3.5C 77.7999,2.4332 82.4666,1.76653 87,1.5C 88.6225,2.09891 90.1225,2.76558 91.5,3.5 Z"/></g>
<g><path style="opacity:0.256" fill="#f6f6f6" d="M 46.5,12.5 C 26.0065,24.8669 11.6732,42.2002 3.5,64.5C 3.85453,61.9333 4.5212,59.4333 5.5,57C 5.08893,55.8558 4.7556,54.6891 4.5,53.5C 5.12466,49.5839 6.79132,46.2506 9.5,43.5C 8.57211,42.2322 8.40544,40.8989 9,39.5C 10.6667,38.5 12.3333,37.5 14,36.5C 15.427,34.2947 15.927,32.1281 15.5,30C 19.3488,30.904 22.0155,29.404 23.5,25.5C 22.1971,23.0324 20.6971,20.699 19,18.5C 18.0126,14.4943 19.5126,12.661 23.5,13C 19.4229,17.0448 20.0895,20.2115 25.5,22.5C 28.1334,21.6994 29.9667,20.0327 31,17.5C 34.2948,18.4237 36.4614,17.0904 37.5,13.5C 36.6994,10.8666 35.0327,9.03329 32.5,8C 34.4357,7.18701 36.4357,6.68701 38.5,6.5C 38.7689,11.9515 41.4356,13.9515 46.5,12.5 Z"/></g>
<g><path style="opacity:1" fill="#e7e7e7" d="M 100.5,4.5 C 109.961,4.08525 118.294,6.75192 125.5,12.5C 117.318,8.99361 108.985,6.32695 100.5,4.5 Z"/></g>
<g><path style="opacity:0.012" fill="#fefffe" d="M 147.5,7.5 C 148.833,8.16667 148.833,8.16667 147.5,7.5 Z"/></g>
<g><path style="opacity:0.007" fill="#fefffe" d="M 25.5,10.5 C 29.2762,10.4692 29.4429,11.1359 26,12.5C 24.3164,12.3166 24.1498,11.6499 25.5,10.5 Z"/></g>
<g><path style="opacity:1" fill="#cccbcd" d="M 102.5,9.5 C 136.294,19.461 157.794,41.461 167,75.5C 170.523,121.978 150.357,152.812 106.5,168C 99.5402,169.087 92.5402,169.587 85.5,169.5C 64.8361,169.161 46.8361,162.161 31.5,148.5C 31.1667,147.5 30.5,146.833 29.5,146.5C 17.6342,134.766 9.96753,120.766 6.5,104.5C 5.8623,99.8103 5.02897,95.1436 4,90.5C 3.61742,89.944 3.11742,89.6107 2.5,89.5C 1.95691,89.44 1.62358,89.1067 1.5,88.5C 2.66656,81.3254 3.33323,74.3254 3.5,67.5C 4.68787,68.6843 5.85453,68.6843 7,67.5C 8.66747,62.1769 10.8341,57.1769 13.5,52.5C 13.4346,52.9382 13.6012,53.2716 14,53.5C 17.5264,48.4609 21.5264,43.7942 26,39.5C 26.4828,38.552 26.6495,37.552 26.5,36.5C 27.552,36.6495 28.552,36.4828 29.5,36C 41.3543,23.8169 55.6876,16.1502 72.5,13C 83.1667,12.3333 93.8333,11.6667 104.5,11C 103.584,10.7216 102.918,10.2216 102.5,9.5 Z"/></g>
<g><path style="opacity:1" fill="#c3c3c2" d="M 127.5,13.5 C 129.027,13.427 130.027,14.0937 130.5,15.5C 128.973,15.573 127.973,14.9063 127.5,13.5 Z"/></g>
<g><path style="opacity:1" fill="#345fc6" d="M 75.5,21.5 C 76.1174,21.6107 76.6174,21.944 77,22.5C 77.262,33.1949 77.9287,43.8616 79,54.5C 79.8664,59.4416 81.6998,63.9416 84.5,68C 87.9563,69.123 90.7897,68.2896 93,65.5C 94.8834,58.1247 96.0501,50.6247 96.5,43C 95.3118,36.494 95.3118,29.994 96.5,23.5C 98.6365,24.4724 99.8032,26.1391 100,28.5C 103.415,42.6152 103.081,56.6152 99,70.5C 94.4365,76.559 88.6032,78.059 81.5,75C 78.9891,72.8207 76.8224,70.3207 75,67.5C 72.6063,56.0372 71.9397,44.3705 73,32.5C 73.2363,28.6557 74.0697,24.989 75.5,21.5 Z"/></g>
<g><path style="opacity:1" fill="#797979" d="M 136.5,19.5 C 138.027,19.427 139.027,20.0937 139.5,21.5C 137.983,21.5106 136.816,22.1772 136,23.5C 135.805,22.1807 135.972,20.8474 136.5,19.5 Z"/></g>
<g><path style="opacity:1" fill="#dddcdc" d="M 139.5,21.5 C 141.833,21.8333 143.167,23.1667 143.5,25.5C 141.833,24.5 140.5,23.1667 139.5,21.5 Z"/></g>
<g><path style="opacity:0.251" fill="#fefffe" d="M 151.5,24.5 C 152.525,24.8966 152.692,25.5632 152,26.5C 151.536,25.9056 151.369,25.2389 151.5,24.5 Z"/></g>
<g><path style="opacity:1" fill="#cfcece" d="M 144.5,26.5 C 146.027,26.427 147.027,27.0937 147.5,28.5C 145.973,28.573 144.973,27.9063 144.5,26.5 Z"/></g>
<g><path style="opacity:1" fill="#e7e7e7" d="M 148.5,30.5 C 151.797,30.6317 153.463,32.2984 153.5,35.5C 151.5,34.1667 149.833,32.5 148.5,30.5 Z"/></g>
<g><path style="opacity:1" fill="#315dc6" d="M 122.5,35.5 C 128.259,34.4273 132.259,36.594 134.5,42C 133.046,43.6591 131.713,43.3257 130.5,41C 119.568,40.0308 116.401,44.5308 121,54.5C 124.703,57.8675 128.036,61.5342 131,65.5C 131.667,69.8333 131.667,74.1667 131,78.5C 125.405,88.2187 117.238,91.7187 106.5,89C 101.671,86.3916 100.004,82.5583 101.5,77.5C 109.366,87.055 116.866,86.7217 124,76.5C 124.667,73.8333 124.667,71.1667 124,68.5C 120.667,64.5 117.333,60.5 114,56.5C 111.891,47.397 114.725,40.397 122.5,35.5 Z"/></g>
<g><path style="opacity:0.004" fill="#fefffe" d="M 163.5,36.5 C 164.833,37.1667 164.833,37.1667 163.5,36.5 Z"/></g>
<g><path style="opacity:0.075" fill="#fefffe" d="M 165.5,41.5 C 164.427,40.7494 164.26,39.7494 165,38.5C 165.483,39.448 165.649,40.448 165.5,41.5 Z"/></g>
<g><path style="opacity:1" fill="#2f5dc6" d="M 58.5,47.5 C 59.2891,47.2172 59.9558,46.7172 60.5,46C 52.6554,45.1777 44.9887,45.3443 37.5,46.5C 36.0222,46.762 34.6888,46.4287 33.5,45.5C 33.7093,44.914 34.0426,44.414 34.5,44C 45.4484,42.2818 56.4484,41.6151 67.5,42C 68.0219,42.5613 68.3552,43.228 68.5,44C 60.3035,54.7253 51.6369,65.0586 42.5,75C 50.6152,74.1729 58.7819,73.3395 67,72.5C 68.8333,72.6667 70.6667,72.8333 72.5,73C 73.7908,75.0902 73.1242,76.4236 70.5,77C 59.2792,79.5315 47.9458,81.3649 36.5,82.5C 31.6179,82.0194 30.4512,79.6861 33,75.5C 40.9967,65.6717 49.4967,56.3384 58.5,47.5 Z"/></g>
<g><path style="opacity:0.078" fill="#fefffe" d="M 165.5,41.5 C 166.833,42.1667 166.833,42.1667 165.5,41.5 Z"/></g>
<g><path style="opacity:0.059" fill="#fefffe" d="M 166.5,43.5 C 167.833,44.1667 167.833,44.1667 166.5,43.5 Z"/></g>
<g><path style="opacity:0.031" fill="#fefffe" d="M 168.5,47.5 C 167.475,47.1034 167.308,46.4368 168,45.5C 168.464,46.0944 168.631,46.7611 168.5,47.5 Z"/></g>
<g><path style="opacity:0.016" fill="#fefffe" d="M 168.5,47.5 C 169.833,48.1667 169.833,48.1667 168.5,47.5 Z"/></g>
<g><path style="opacity:0.012" fill="#fefffe" d="M 169.5,49.5 C 170.833,50.1667 170.833,50.1667 169.5,49.5 Z"/></g>
<g><path style="opacity:1" fill="#615f5e" d="M 162.5,52.5 C 163.906,52.9731 164.573,53.9731 164.5,55.5C 161.834,55.9342 160.667,54.9342 161,52.5C 161.69,53.7383 162.19,53.7383 162.5,52.5 Z"/></g>
<g><path style="opacity:1" fill="#cccccc" d="M 165.5,58.5 C 167.536,60.2057 168.536,62.539 168.5,65.5C 166.759,63.6051 165.759,61.2718 165.5,58.5 Z"/></g>
<g><path style="opacity:1" fill="#728ece" d="M 150.5,68.5 C 156.878,69.7057 156.545,71.2057 149.5,73C 147.167,73.6667 144.833,73.6667 142.5,73C 145.099,71.205 147.766,69.705 150.5,68.5 Z"/></g>
<g><path style="opacity:1" fill="#ededed" d="M 169.5,70.5 C 170.131,72.4478 171.131,74.2811 172.5,76C 171.901,77.6225 171.234,79.1225 170.5,80.5C 169.949,77.1933 169.616,73.8599 169.5,70.5 Z"/></g>
<g><path style="opacity:1" fill="#7690ce" d="M 16.5,82.5 C 21.2963,83.4873 25.963,84.9873 30.5,87C 26.1305,87.4248 21.7972,87.0915 17.5,86C 16.6634,84.9887 16.33,83.8221 16.5,82.5 Z"/></g>
<g><path style="opacity:1" fill="#718ece" d="M 139.5,81.5 C 142.538,83.1118 145.371,85.1118 148,87.5C 148.749,88.635 148.583,89.635 147.5,90.5C 144.074,88.0801 141.408,85.0801 139.5,81.5 Z"/></g>
<g><path style="opacity:1" fill="#315dc6" d="M 78.5,87.5 C 80.1439,87.2865 81.6439,87.6198 83,88.5C 84.7262,94.0322 85.7262,99.6989 86,105.5C 86.6667,117.167 86.6667,128.833 86,140.5C 85.7132,142.891 85.2132,145.224 84.5,147.5C 83.675,148.386 82.675,148.719 81.5,148.5C 81.059,139.598 80.3923,130.765 79.5,122C 75.2794,120.378 70.946,119.712 66.5,120C 63.6253,124.917 60.6253,129.751 57.5,134.5C 56.2801,134.113 55.6135,133.28 55.5,132C 60.9575,115.915 68.6241,101.082 78.5,87.5 Z"/></g>
<g><path style="opacity:1" fill="#305dc6" d="M 131.5,91.5 C 145.868,96.5649 151.034,106.565 147,121.5C 143.499,130.512 136.999,135.512 127.5,136.5C 128.715,121.472 130.048,106.472 131.5,91.5 Z"/></g>
<g><path style="opacity:1" fill="#325ec6" d="M 57.5,100.5 C 52.5,100.5 47.5,100.5 42.5,100.5C 42.1872,104.042 42.5206,107.375 43.5,110.5C 44.704,122.829 44.704,135.162 43.5,147.5C 41.242,145.323 39.742,142.657 39,139.5C 37.1391,126.22 35.9724,112.887 35.5,99.5C 31.4862,99.6655 27.4862,99.4988 23.5,99C 20.8333,97.3333 20.8333,95.6667 23.5,94C 35.1667,93.3333 46.8333,93.3333 58.5,94C 60.3632,95.4178 60.8632,97.2511 60,99.5C 59.3292,100.252 58.4959,100.586 57.5,100.5 Z"/></g>
<g><path style="opacity:1" fill="#335ec6" d="M 117.5,93.5 C 118.822,93.33 119.989,93.6634 121,94.5C 121.667,104.167 121.667,113.833 121,123.5C 119.612,124.554 118.112,124.72 116.5,124C 111.376,118.887 106.376,113.721 101.5,108.5C 100.288,117.462 99.455,126.462 99,135.5C 98.5814,136.672 97.9147,137.672 97,138.5C 95.7258,134.015 95.0591,129.348 95,124.5C 94.3333,116.167 94.3333,107.833 95,99.5C 96.4659,97.6751 98.2992,97.1751 100.5,98C 104.667,103.5 109.5,108.333 115,112.5C 115.582,106.083 116.416,99.7498 117.5,93.5 Z"/></g>
<g><path style="opacity:0.984" fill="#f3f2f2" d="M 2.5,94.5 C 3.0508,97.8067 3.38413,101.14 3.5,104.5C 2.02104,102.28 0.68771,99.9462 -0.5,97.5C -0.5,96.8333 -0.5,96.1667 -0.5,95.5C 0.608953,95.4431 1.60895,95.1098 2.5,94.5 Z"/></g>
<g><path style="opacity:1" fill="#c5c7cd" d="M 134.5,97.5 C 139.854,100.698 142.521,105.531 142.5,112C 141.649,118.535 138.816,124.035 134,128.5C 134.226,118.186 134.393,107.853 134.5,97.5 Z"/></g>
<g><path style="opacity:1" fill="#5d5c5a" d="M 2.5,89.5 C 3.11742,89.6107 3.61742,89.944 4,90.5C 5.02897,95.1436 5.8623,99.8103 6.5,104.5C 5.88258,104.389 5.38258,104.056 5,103.5C 4.50649,105.134 4.33982,106.801 4.5,108.5C 3.56552,107.432 3.23219,106.099 3.5,104.5C 3.38413,101.14 3.0508,97.8067 2.5,94.5C 2.5,92.8333 2.5,91.1667 2.5,89.5 Z"/></g>
<g><path style="opacity:1" fill="#c4c6cd" d="M 77.5,99.5 C 78.8164,102.087 79.483,105.087 79.5,108.5C 79.3333,111.5 79.1667,114.5 79,117.5C 75.9419,116.237 72.7752,115.237 69.5,114.5C 72.2239,109.466 74.8906,104.466 77.5,99.5 Z"/></g>
<g><path style="opacity:1" fill="#6280c9" d="M 57.5,100.5 C 53.03,101.486 48.3633,101.819 43.5,101.5C 43.5,104.5 43.5,107.5 43.5,110.5C 42.5206,107.375 42.1872,104.042 42.5,100.5C 47.5,100.5 52.5,100.5 57.5,100.5 Z"/></g>
<g><path style="opacity:1" fill="#888787" d="M 168.5,104.5 C 171.167,106.167 171.167,107.833 168.5,109.5C 168.5,107.833 168.5,106.167 168.5,104.5 Z"/></g>
<g><path style="opacity:1" fill="#708dce" d="M 27.5,108.5 C 28.675,108.281 29.675,108.614 30.5,109.5C 27.7443,112.427 24.5777,114.76 21,116.5C 19.9412,116.37 19.1079,115.87 18.5,115C 20.8581,111.832 23.8581,109.665 27.5,108.5 Z"/></g>
<g><path style="opacity:1" fill="#32302e" d="M 6.5,104.5 C 9.96753,120.766 17.6342,134.766 29.5,146.5C 29.7373,147.791 29.404,148.791 28.5,149.5C 25.8238,146.831 23.1571,144.165 20.5,141.5C 16.5013,135.679 12.8346,129.679 9.5,123.5C 9.44312,122.391 9.10978,121.391 8.5,120.5C 8.77089,118.62 8.10422,117.287 6.5,116.5C 6.76781,114.901 6.43448,113.568 5.5,112.5C 5.56745,111.041 5.23411,109.708 4.5,108.5C 4.33982,106.801 4.50649,105.134 5,103.5C 5.38258,104.056 5.88258,104.389 6.5,104.5 Z"/></g>
<g><path style="opacity:0.973" fill="#e4e4e4" d="M 5.5,112.5 C 6.43448,113.568 6.76781,114.901 6.5,116.5C 5.76109,116.631 5.09442,116.464 4.5,116C 5.33663,114.989 5.66997,113.822 5.5,112.5 Z"/></g>
<g><path style="opacity:1" fill="#1e1d1c" d="M 91.5,3.5 C 94.4824,3.96286 97.4824,4.29619 100.5,4.5C 108.985,6.32695 117.318,8.99361 125.5,12.5C 126.167,12.8333 126.833,13.1667 127.5,13.5C 127.973,14.9063 128.973,15.573 130.5,15.5C 132.5,16.8333 134.5,18.1667 136.5,19.5C 135.972,20.8474 135.805,22.1807 136,23.5C 136.816,22.1772 137.983,21.5106 139.5,21.5C 140.5,23.1667 141.833,24.5 143.5,25.5C 144.167,25.5 144.5,25.8333 144.5,26.5C 144.973,27.9063 145.973,28.573 147.5,28.5C 147.833,29.1667 148.167,29.8333 148.5,30.5C 149.833,32.5 151.5,34.1667 153.5,35.5C 155.812,40.1099 158.645,44.4432 162,48.5C 162.49,49.7932 162.657,51.1266 162.5,52.5C 162.19,53.7383 161.69,53.7383 161,52.5C 160.667,54.9342 161.834,55.9342 164.5,55.5C 164.557,56.609 164.89,57.609 165.5,58.5C 165.759,61.2718 166.759,63.6051 168.5,65.5C 169.301,67.0418 169.634,68.7085 169.5,70.5C 169.616,73.8599 169.949,77.1933 170.5,80.5C 171.026,88.7182 170.36,96.7182 168.5,104.5C 168.5,106.167 168.5,107.833 168.5,109.5C 168.08,113.863 166.747,117.863 164.5,121.5C 163.326,122.514 162.66,123.847 162.5,125.5C 160.287,128.592 158.621,131.926 157.5,135.5C 155.738,136.262 154.738,137.596 154.5,139.5C 154.5,140.167 154.167,140.5 153.5,140.5C 151.273,142.607 149.273,144.94 147.5,147.5C 147.167,148.5 146.5,149.167 145.5,149.5C 144.5,149.833 143.833,150.5 143.5,151.5C 140.019,154.409 136.352,157.075 132.5,159.5C 130.973,159.427 129.973,160.094 129.5,161.5C 125.021,164.568 120.021,166.901 114.5,168.5C 112.214,168.595 110.214,169.262 108.5,170.5C 107.432,171.434 106.099,171.768 104.5,171.5C 99.8809,172.314 95.2142,172.647 90.5,172.5C 88.1667,172.5 85.8333,172.5 83.5,172.5C 83.7822,171.222 84.4489,170.222 85.5,169.5C 92.5402,169.587 99.5402,169.087 106.5,168C 150.357,152.812 170.523,121.978 167,75.5C 157.794,41.461 136.294,19.461 102.5,9.5C 94.6113,8.95468 86.7779,8.28801 79,7.5C 78.6012,7.72845 78.4346,8.06178 78.5,8.5C 74.1908,7.49608 70.1908,8.16274 66.5,10.5C 62.0948,10.4493 57.9281,11.4493 54,13.5C 52.9701,13.8361 52.4701,14.5028 52.5,15.5C 34.7634,22.5631 21.7634,34.8964 13.5,52.5C 10.8341,57.1769 8.66747,62.1769 7,67.5C 5.85453,68.6843 4.68787,68.6843 3.5,67.5C 3.5,66.5 3.5,65.5 3.5,64.5C 11.6732,42.2002 26.0065,24.8669 46.5,12.5C 53.6637,9.73876 60.9971,7.23876 68.5,5C 76.1254,3.85831 83.7921,3.35831 91.5,3.5 Z"/></g>
<g><path style="opacity:1" fill="#748fce" d="M 20.5,56.5 C 21.8734,56.3433 23.2068,56.51 24.5,57C 27.7441,59.6787 30.0774,62.512 31.5,65.5C 29.6641,64.081 27.6641,62.9143 25.5,62C 22.921,60.9243 21.2543,59.091 20.5,56.5 Z"/></g>
<g><path style="opacity:1" fill="#738ece" d="M 145.5,52.5 C 146.978,52.238 148.311,52.5713 149.5,53.5C 146.188,57.3114 142.188,59.8114 137.5,61C 140.316,58.3498 142.982,55.5164 145.5,52.5 Z"/></g>
<g><path style="opacity:1" fill="#6b89cc" d="M 37.5,46.5 C 44.9887,45.3443 52.6554,45.1777 60.5,46C 59.9558,46.7172 59.2891,47.2172 58.5,47.5C 51.6866,46.5088 44.6866,46.1755 37.5,46.5 Z"/></g>
<g><path style="opacity:1" fill="#6f8cce" d="M 111.5,22.5 C 112.693,22.9704 113.36,23.9704 113.5,25.5C 110.413,37.1265 109.246,37.1265 110,25.5C 110.513,24.4734 111.013,23.4734 111.5,22.5 Z"/></g>
<g><path style="opacity:1" fill="#7690ce" d="M 56.5,23.5 C 61.0946,25.3656 63.0946,28.6989 62.5,33.5C 59.2442,30.9129 57.2442,27.5796 56.5,23.5 Z"/></g>
<g><path style="opacity:1" fill="#edecea" d="M 102.5,9.5 C 102.918,10.2216 103.584,10.7216 104.5,11C 93.8333,11.6667 83.1667,12.3333 72.5,13C 55.6876,16.1502 41.3543,23.8169 29.5,36C 28.552,36.4828 27.552,36.6495 26.5,36.5C 26.6495,37.552 26.4828,38.552 26,39.5C 21.5264,43.7942 17.5264,48.4609 14,53.5C 13.6012,53.2716 13.4346,52.9382 13.5,52.5C 21.7634,34.8964 34.7634,22.5631 52.5,15.5C 57.4044,14.2008 62.0711,12.5341 66.5,10.5C 70.6643,10.0443 74.6643,9.37766 78.5,8.5C 78.4346,8.06178 78.6012,7.72845 79,7.5C 86.7779,8.28801 94.6113,8.95468 102.5,9.5 Z"/></g>
<g><path style="opacity:1" fill="#b7b3b2" d="M 66.5,10.5 C 62.0711,12.5341 57.4044,14.2008 52.5,15.5C 52.4701,14.5028 52.9701,13.8361 54,13.5C 57.9281,11.4493 62.0948,10.4493 66.5,10.5 Z"/></g>
<g><path style="opacity:1" fill="#918f8d" d="M 78.5,8.5 C 74.6643,9.37766 70.6643,10.0443 66.5,10.5C 70.1908,8.16274 74.1908,7.49608 78.5,8.5 Z"/></g>
<g><path style="opacity:0.989" fill="#f4f4f4" d="M 8.5,120.5 C 9.10978,121.391 9.44312,122.391 9.5,123.5C 7.44818,122.947 7.11484,121.947 8.5,120.5 Z"/></g>
<g><path style="opacity:1" fill="#bdbdbc" d="M 164.5,121.5 C 164.771,123.38 164.104,124.713 162.5,125.5C 162.66,123.847 163.326,122.514 164.5,121.5 Z"/></g>
<g><path style="opacity:0.004" fill="#fefffe" d="M 3.5,126.5 C 2.83333,125.167 2.83333,125.167 3.5,126.5 Z"/></g>
<g><path style="opacity:0.05" fill="#fefffe" d="M 3.5,126.5 C 4.40397,127.209 4.73731,128.209 4.5,129.5C 3.59603,128.791 3.26269,127.791 3.5,126.5 Z"/></g>
<g><path style="opacity:0.125" fill="#fefffe" d="M 4.5,129.5 C 5.83333,130.167 5.83333,130.167 4.5,129.5 Z"/></g>
<g><path style="opacity:0.611" fill="#fefffe" d="M 165.5,129.5 C 166.497,129.47 167.164,129.97 167.5,131C 162.251,136.918 161.584,136.418 165.5,129.5 Z"/></g>
<g><path style="opacity:1" fill="#f1f1f1" d="M 157.5,135.5 C 157.912,137.973 156.912,139.306 154.5,139.5C 154.738,137.596 155.738,136.262 157.5,135.5 Z"/></g>
<g><path style="opacity:1" fill="#738fce" d="M 112.5,134.5 C 115.602,136.656 117.768,139.656 119,143.5C 119.781,144.944 119.614,146.277 118.5,147.5C 115.357,143.759 113.357,139.425 112.5,134.5 Z"/></g>
<g><path style="opacity:1" fill="#6f8cce" d="M 68.5,141.5 C 69.3764,141.369 70.0431,141.702 70.5,142.5C 69.2604,146.651 67.2604,150.317 64.5,153.5C 63.2801,153.113 62.6135,152.28 62.5,151C 64.3134,147.693 66.3134,144.526 68.5,141.5 Z"/></g>
<g><path style="opacity:0.039" fill="#fefffe" d="M -0.5,143.5 C 1.43092,145.794 2.26426,148.461 2,151.5C 1.32924,150.748 0.495904,150.414 -0.5,150.5C -0.5,148.167 -0.5,145.833 -0.5,143.5 Z"/></g>
<g><path style="opacity:1" fill="#738fce" d="M 106.5,143.5 C 109.943,146.839 110.943,150.839 109.5,155.5C 107.031,151.91 106.031,147.91 106.5,143.5 Z"/></g>
<g><path style="opacity:1" fill="#f6f6f6" d="M 153.5,140.5 C 152.634,143.954 150.634,146.288 147.5,147.5C 149.273,144.94 151.273,142.607 153.5,140.5 Z"/></g>
<g><path style="opacity:0.024" fill="#fefffe" d="M 159.5,146.5 C 160.525,146.897 160.692,147.563 160,148.5C 159.536,147.906 159.369,147.239 159.5,146.5 Z"/></g>
<g><path style="opacity:1" fill="#838180" d="M 29.5,146.5 C 30.5,146.833 31.1667,147.5 31.5,148.5C 30.5655,149.568 30.2322,150.901 30.5,152.5C 29.0937,152.027 28.427,151.027 28.5,149.5C 29.404,148.791 29.7373,147.791 29.5,146.5 Z"/></g>
<g><path style="opacity:0.996" fill="#ededed" d="M 145.5,149.5 C 145.5,150.833 144.833,151.5 143.5,151.5C 143.833,150.5 144.5,149.833 145.5,149.5 Z"/></g>
<g><path style="opacity:1" fill="#7590ce" d="M 75.5,150.5 C 76.6491,150.791 77.3158,151.624 77.5,153C 77,155.5 76.5,158 76,160.5C 75.2904,161.973 74.1238,162.64 72.5,162.5C 72.686,158.279 73.686,154.279 75.5,150.5 Z"/></g>
<g><path style="opacity:0.012" fill="#fefffe" d="M 20.5,154.5 C 21.8333,155.167 21.8333,155.167 20.5,154.5 Z"/></g>
<g><path style="opacity:0.016" fill="#fefffe" d="M 24.5,157.5 C 23.8333,156.167 23.8333,156.167 24.5,157.5 Z"/></g>
<g><path style="opacity:0.035" fill="#fefffe" d="M 24.5,157.5 C 25.4916,157.328 26.1583,157.662 26.5,158.5C 25.5084,158.672 24.8417,158.338 24.5,157.5 Z"/></g>
<g><path style="opacity:0.031" fill="#fefffe" d="M 26.5,158.5 C 27.1667,158.5 27.5,158.833 27.5,159.5C 27.1667,159.167 26.8333,158.833 26.5,158.5 Z"/></g>
<g><path style="opacity:0.016" fill="#fefffe" d="M 27.5,159.5 C 28.1667,159.5 28.5,159.833 28.5,160.5C 28.1667,160.167 27.8333,159.833 27.5,159.5 Z"/></g>
<g><path style="opacity:0.012" fill="#fefffe" d="M 28.5,160.5 C 29.8333,161.167 29.8333,161.167 28.5,160.5 Z"/></g>
<g><path style="opacity:1" fill="#dbdbdb" d="M 132.5,159.5 C 132.027,160.906 131.027,161.573 129.5,161.5C 129.973,160.094 130.973,159.427 132.5,159.5 Z"/></g>
<g><path style="opacity:0.074" fill="#fefffe" d="M 134.5,165.5 C 136.355,163.967 138.188,162.3 140,160.5C 139.692,163.635 137.859,165.302 134.5,165.5 Z"/></g>
<g><path style="opacity:1" fill="#91908f" d="M 46.5,163.5 C 48.4832,163.157 49.8166,163.824 50.5,165.5C 48.847,165.34 47.5137,164.674 46.5,163.5 Z"/></g>
<g><path style="opacity:0.024" fill="#fefffe" d="M 134.5,165.5 C 134.103,166.525 133.437,166.692 132.5,166C 133.094,165.536 133.761,165.369 134.5,165.5 Z"/></g>
<g><path style="opacity:0.015" fill="#fefffe" d="M 3.5,166.5 C 5.55301,167.534 7.21968,169.034 8.5,171C 5.81422,170.823 4.14756,169.323 3.5,166.5 Z"/></g>
<g><path style="opacity:0.008" fill="#fefffe" d="M 130.5,166.5 C 131.833,167.167 131.833,167.167 130.5,166.5 Z"/></g>
<g><path style="opacity:1" fill="#838282" d="M 53.5,166.5 C 55.8984,166.259 57.8984,166.926 59.5,168.5C 57.1016,168.741 55.1016,168.074 53.5,166.5 Z"/></g>
<g><path style="opacity:0.02" fill="#fefffe" d="M 128.5,167.5 C 129.833,168.167 129.833,168.167 128.5,167.5 Z"/></g>
<g><path style="opacity:1" fill="#292827" d="M 31.5,148.5 C 46.8361,162.161 64.8361,169.161 85.5,169.5C 84.4489,170.222 83.7822,171.222 83.5,172.5C 77.828,172.24 72.1613,171.907 66.5,171.5C 64.4907,169.935 62.1573,168.935 59.5,168.5C 57.8984,166.926 55.8984,166.259 53.5,166.5C 52.391,166.443 51.391,166.11 50.5,165.5C 49.8166,163.824 48.4832,163.157 46.5,163.5C 41.6953,159.023 36.362,155.356 30.5,152.5C 30.2322,150.901 30.5655,149.568 31.5,148.5 Z"/></g>
<g><path style="opacity:0.037" fill="#fefffe" d="M 126.5,169.5 C 126.842,168.662 127.508,168.328 128.5,168.5C 128.158,169.338 127.492,169.672 126.5,169.5 Z"/></g>
<g><path style="opacity:1" fill="#d7d7d6" d="M 114.5,168.5 C 113.082,170.308 111.082,170.975 108.5,170.5C 110.214,169.262 112.214,168.595 114.5,168.5 Z"/></g>
<g><path style="opacity:0.039" fill="#fefffe" d="M 126.5,169.5 C 125.833,170.167 125.833,170.167 126.5,169.5 Z"/></g>
<g><path style="opacity:1" fill="#e8e8e7" d="M 59.5,168.5 C 62.1573,168.935 64.4907,169.935 66.5,171.5C 63.509,171.834 61.1757,170.834 59.5,168.5 Z"/></g>
<g><path style="opacity:0.085" fill="#fefffe" d="M 125.5,170.5 C 124.998,172.085 123.998,172.585 122.5,172C 123.244,170.961 124.244,170.461 125.5,170.5 Z"/></g>
<g><path style="opacity:1" fill="#dfdfdf" d="M 104.5,171.5 C 104.389,172.117 104.056,172.617 103.5,173C 98.9796,173.814 94.6463,173.647 90.5,172.5C 95.2142,172.647 99.8809,172.314 104.5,171.5 Z"/></g>
</svg>
